<?xml version="1.0" ?><svg xmlns="http://www.w3.org/2000/svg" id="Camada_1" data-name="Camada 1" viewBox="0 0 938.062 933.908"><defs><style>.cls-1{fill:#5ce8ff;}.cls-1,.cls-2,.cls-3,.cls-4,.cls-5,.cls-6,.cls-7,.cls-8,.cls-9{stroke:#000;stroke-miterlimit:10;stroke-width:0.3px;}.cls-2{fill:#ffe45f;}.cls-3{fill:#00c100;}.cls-4{fill:#ff8585;}.cls-5{fill:#f9c;}.cls-6{fill:#ffb636;}.cls-7{fill:#ffed94;}.cls-8{fill:#ce83ff;}.cls-9{fill:#00ff91;}</style></defs><title>Mapa DDDs colorido simplificado</title><polygon class="cls-1" points="593.2 708.7 583.4 697.0 584.9 693.4 583.0 688.8 584.5 686.8 581.8 680.5 576.2 677.8 574.7 674.3 568.4 675.4 558.3 674.0 556.5 675.7 552.8 671.7 546.6 670.7 543.8 668.6 533.0 668.6 531.0 672.5 533.1 674.8 531.2 676.7 537.8 681.5 533.7 685.5 535.7 688.0 534.8 690.3 527.3 692.8 528.2 694.1 526.1 696.1 527.7 697.6 527.2 702.1 528.9 703.3 526.0 705.0 533.1 714.9 539.4 713.8 538.2 715.5 540.4 718.6 545.3 718.8 548.0 722.8 550.6 723.6 548.2 715.7 545.6 713.0 547.9 710.1 547.9 707.4 545.9 706.7 541.2 703.7 548.1 702.2 547.5 699.1 551.2 698.1 552.6 695.6 558.6 702.3 566.2 703.4 566.1 701.1 568.4 699.6 571.8 702.7 569.5 704.9 569.7 707.3 574.4 706.3 575.3 709.3 582.8 712.3 583.4 715.0 586.0 715.1"/><polygon class="cls-2" points="337.6 419.2 335.2 411.3 332.6 410.0 332.0 406.5 332.1 403.5 336.8 399.0 335.2 392.2 327.7 390.8 326.5 392.1 323.9 389.2 297.8 389.1 299.6 384.6 299.9 375.6 296.5 369.2 298.8 362.9 297.2 358.8 299.5 356.6 295.8 348.0 298.4 347.5 297.6 343.8 299.7 339.6 293.9 334.1 290.9 335.2 289.1 338.7 284.0 336.9 282.5 331.8 278.9 332.1 278.2 326.9 275.9 325.8 274.4 326.8 270.5 319.9 266.3 317.1 248.2 317.1 244.6 325.4 240.5 325.6 239.8 329.3 241.0 331.5 239.5 331.7 238.5 334.8 235.7 335.5 235.7 340.5 219.1 341.5 217.2 342.6 216.8 347.7 212.9 352.0 210.8 351.8 209.3 347.8 204.5 349.2 204.8 352.8 201.0 351.5 196.3 355.6 192.0 351.5 181.5 351.3 181.9 353.6 179.3 356.8 171.9 361.2 181.1 363.1 187.7 360.4 196.2 360.6 196.8 359.2 201.9 361.8 204.6 357.6 206.2 358.3 208.4 361.8 207.3 364.2 208.3 370.8 205.0 376.9 205.3 380.4 209.3 389.2 206.6 392.8 207.6 394.2 206.6 395.5 208.3 397.2 207.9 401.4 210.2 402.1 209.0 406.4 210.8 407.6 213.2 406.5 214.5 413.3 219.1 413.6 219.0 416.0 220.8 415.7 221.1 417.2 222.4 415.6 222.2 417.6 227.0 418.8 227.0 421.9 232.3 425.4 233.7 424.3 240.3 426.1 244.3 423.6 256.0 429.7 259.3 428.1 262.9 433.4 265.6 433.9 268.4 437.5 271.4 436.5 277.1 440.4 282.9 440.0 284.3 443.5 289.6 447.6 290.8 450.4 310.6 449.0 310.8 450.5 312.8 450.2 317.9 453.9 319.7 451.0 325.7 448.1 328.1 439.2 332.9 434.7 333.3 429.4 340.3 421.5"/><polygon class="cls-2" points="176.2 363.3 128.0 342.8 94.3 314.0 33.8 307.0 4.7 296.4 6.8 301.5 0.7 302.2 1.9 304.9 0.3 307.3 7.5 312.3 7.4 314.2 5.4 315.3 8.9 318.2 11.0 325.9 15.8 328.9 15.7 332.4 20.1 334.6 22.5 339.4 25.4 341.4 24.0 346.2 18.8 351.5 30.6 351.5 39.3 353.5 41.7 356.4 41.3 359.5 44.2 360.7 43.5 365.5 66.7 364.7 81.4 352.2 83.8 351.7 82.4 355.3 81.3 355.0 82.8 359.9 80.7 361.2 80.8 389.4 83.0 387.8 85.1 390.4 88.2 391.1 97.2 387.6 102.4 388.9 109.6 387.7 125.3 389.4 126.3 392.9 130.5 392.1 137.7 388.4 142.2 381.6 146.7 380.9 150.5 382.5 151.2 380.0 157.7 374.4 167.0 371.7"/><polygon class="cls-3" points="377.6 304.7 379.2 302.0 369.8 302.0 369.2 298.5 370.9 295.2 367.6 293.9 362.2 286.7 362.2 278.9 356.9 279.1 337.2 288.8 335.9 284.7 339.2 280.1 351.3 280.5 349.7 277.1 350.5 272.8 344.1 263.8 345.7 258.3 341.8 257.8 342.7 252.7 336.2 242.8 329.8 243.7 328.0 246.9 318.0 246.9 317.5 248.6 313.0 248.6 303.9 239.0 315.5 226.3 310.5 223.9 307.0 225.4 307.0 221.4 309.9 217.7 307.3 216.8 307.4 214.8 303.0 214.7 301.1 213.0 299.5 214.5 289.7 214.0 286.3 212.0 284.6 204.5 280.5 207.1 280.4 208.9 276.7 208.4 274.5 202.0 264.8 198.2 264.8 194.6 258.6 194.2 255.8 190.9 252.0 191.0 246.1 194.1 244.2 187.5 239.5 187.7 240.2 184.8 245.1 184.6 248.9 182.7 251.9 183.4 253.8 185.8 256.0 184.4 262.1 185.7 268.9 181.1 283.2 177.3 285.9 173.5 287.1 174.7 289.8 172.0 291.7 172.8 295.7 169.9 298.2 171.0 299.1 173.4 301.8 171.6 300.8 165.0 296.5 160.9 289.5 159.7 286.3 153.2 275.0 145.0 275.4 142.6 277.4 143.6 280.0 141.8 279.6 138.5 282.5 134.1 276.9 124.0 276.3 117.2 274.2 114.1 274.2 109.5 276.0 107.5 275.7 100.3 273.9 99.5 271.8 92.0 267.7 88.2 269.7 85.3 270.2 80.0 266.9 78.0 261.8 77.7 259.6 74.3 254.2 73.4 253.0 75.3 248.3 75.9 247.1 78.0 239.3 78.9 237.7 80.1 236.9 87.6 231.9 91.2 231.1 93.7 229.6 92.9 230.8 90.3 229.7 89.8 221.7 96.8 219.9 94.9 216.2 96.9 214.7 99.6 212.8 98.6 210.9 104.2 207.4 104.0 205.1 109.4 202.3 110.8 201.1 109.0 203.4 105.2 201.2 102.2 194.2 104.0 189.2 108.1 183.7 108.2 170.8 96.9 165.3 98.4 165.1 84.8 163.6 82.1 160.5 81.1 158.1 72.6 152.5 77.9 149.0 77.5 144.8 82.5 139.1 78.9 137.1 82.6 139.7 84.9 110.1 85.0 106.3 83.4 99.4 85.1 99.3 100.3 102.5 99.3 103.1 100.5 113.2 100.8 116.3 105.3 115.1 108.7 116.8 110.7 110.9 111.6 108.0 108.7 105.0 111.2 103.3 110.2 100.2 112.6 94.6 112.9 94.2 130.8 104.8 138.4 106.0 141.6 104.5 144.2 109.4 150.2 110.1 153.4 96.5 229.2 94.8 230.5 93.0 228.3 90.8 230.7 88.5 228.9 87.8 225.5 85.1 225.2 83.6 226.7 82.5 225.3 80.7 226.6 80.0 225.0 79.3 226.8 76.3 226.4 73.0 231.2 65.0 231.3 64.1 233.0 59.5 232.7 57.2 234.8 56.8 233.2 50.6 234.3 44.7 239.3 38.9 241.3 32.7 247.2 28.3 248.5 26.6 249.9 24.8 261.6 18.2 270.6 17.9 273.3 21.2 279.7 20.5 281.8 8.5 288.1 4.7 296.4 33.8 307.0 94.3 314.0 128.0 342.8 171.9 361.2 179.3 356.8 181.9 353.6 181.5 351.3 192.0 351.5 196.3 355.6 201.0 351.5 204.8 352.8 204.6 349.2 209.3 347.8 210.8 351.8 212.9 351.9 216.8 347.7 217.2 342.6 219.1 341.4 235.6 340.6 235.8 335.4 238.5 334.8 239.5 331.6 241.0 331.4 239.8 329.3 240.5 325.6 244.6 325.3 248.2 317.1 266.8 317.3 270.5 319.8 274.4 326.8 275.9 325.8 278.3 327.0 279.0 332.2 282.5 331.8 284.0 336.8 286.3 336.8 287.4 338.6 290.4 338.0 290.9 335.2 293.9 334.1 297.0 336.7 372.7 336.6 374.9 334.9 372.2 334.5 375.8 320.7 373.5 313.9 377.9 308.6"/><polygon class="cls-3" points="428.2 174.8 420.7 178.3 418.1 177.4 414.1 179.1 412.2 178.1 412.9 174.5 406.0 172.2 402.6 167.4 397.2 167.6 383.7 159.9 382.3 152.7 379.0 155.8 376.6 153.3 375.0 153.7 372.5 150.9 372.2 147.2 365.8 142.5 365.4 136.8 361.8 134.5 361.3 120.0 334.0 120.0 325.2 138.6 327.5 143.3 323.5 144.5 322.2 147.0 316.6 146.9 316.4 144.4 312.6 139.5 308.6 138.2 305.6 138.2 298.1 144.3 297.0 148.7 298.0 151.7 295.9 157.4 296.2 159.8 301.0 165.5 301.8 171.6 299.9 171.8 300.2 172.9 299.1 173.4 298.2 171.0 295.7 170.0 291.6 172.8 288.9 172.4 287.1 174.7 285.9 173.5 283.2 177.3 268.9 181.1 262.1 185.7 256.0 184.4 253.8 185.8 251.9 183.4 248.9 182.7 245.1 184.6 240.2 184.8 239.4 187.4 244.2 187.5 246.1 194.1 252.0 191.0 255.8 190.9 258.6 194.2 264.8 194.6 264.8 198.3 268.4 198.5 274.5 202.0 276.7 208.4 280.4 208.9 280.5 207.1 284.6 204.5 286.3 212.0 289.7 214.0 299.5 214.4 301.1 212.9 303.0 214.7 307.4 214.8 307.3 216.8 309.9 217.7 307.0 221.4 307.0 225.4 310.5 223.9 315.6 226.3 303.9 239.0 313.0 248.6 317.5 248.6 318.0 246.9 328.0 246.9 329.9 243.7 336.2 242.8 342.7 252.7 341.9 257.8 345.7 258.3 344.1 263.8 350.5 272.8 349.7 277.1 351.4 280.5 339.2 280.1 335.9 284.7 337.2 288.8 356.9 279.1 362.2 279.0 362.2 286.7 367.6 294.0 370.9 295.2 369.2 298.5 369.8 302.0 379.2 302.0 377.7 297.0 372.3 291.6 371.3 286.6 376.6 280.7 420.9 185.1 419.4 184.3 421.4 180.6 425.7 178.5"/><polygon class="cls-3" points="361.5 96.1 352.7 93.1 345.9 85.1 342.3 84.3 343.1 82.8 342.9 81.6 340.8 81.7 341.5 71.8 337.1 69.5 335.2 56.2 339.5 46.0 338.0 40.7 342.8 37.7 346.4 31.9 343.1 28.9 343.9 27.4 341.3 26.3 342.7 21.6 339.8 19.5 331.0 18.2 334.2 13.7 335.6 5.1 332.6 3.3 331.6 0.7 324.5 2.3 317.6 1.4 320.7 8.3 316.9 12.6 313.3 13.5 311.0 18.3 307.5 19.1 303.2 17.8 304.0 19.7 298.7 20.9 297.6 24.5 292.4 24.6 288.7 28.1 287.5 26.3 283.5 28.8 275.9 26.3 273.8 28.0 273.7 30.2 269.0 29.8 269.2 38.4 267.0 36.9 264.0 40.0 261.1 37.9 260.6 35.5 257.7 34.5 258.1 31.7 252.8 31.1 252.7 33.8 251.2 34.4 246.8 30.2 246.8 32.8 242.8 31.8 240.0 33.7 235.2 27.6 225.8 28.2 222.4 24.6 219.5 24.4 227.5 35.6 232.3 37.8 234.5 40.7 236.4 46.6 233.9 52.4 239.6 61.0 237.7 66.5 251.9 68.8 253.2 67.6 254.6 69.2 254.5 73.7 259.6 74.3 261.8 77.8 270.1 79.9 269.7 85.3 267.8 88.2 271.8 92.0 274.1 99.7 275.7 100.3 276.1 107.5 274.3 109.5 274.3 114.1 276.3 117.2 276.9 124.0 282.5 134.1 279.6 138.5 280.0 141.8 277.4 143.6 275.4 142.6 274.8 144.4 286.3 153.2 289.5 159.7 296.0 160.7 299.6 164.1 296.1 159.7 298.0 151.7 297.0 148.7 299.8 142.1 305.3 139.7 305.6 138.2 312.5 139.4 316.4 144.4 316.6 146.9 318.9 147.5 327.4 143.5 325.2 138.6 334.0 120.0 361.3 120.0"/><polygon class="cls-3" points="668.3 152.6 667.7 150.7 665.7 152.3 665.7 150.2 665.2 152.0 664.1 152.6 664.9 147.5 662.2 150.8 658.7 150.9 658.0 149.6 659.7 147.0 654.6 149.5 655.6 146.5 654.4 145.3 652.5 147.0 651.6 145.4 650.6 147.2 649.2 144.0 647.3 147.1 646.9 143.3 644.5 145.4 643.0 142.5 641.9 144.6 641.7 142.4 638.2 140.4 635.7 142.0 635.9 140.4 634.5 140.5 634.4 144.0 631.8 140.1 630.8 143.2 629.0 139.1 627.7 140.9 626.8 139.6 626.3 139.8 625.8 142.6 625.6 140.4 624.0 139.7 622.4 142.8 620.6 142.1 614.9 148.3 611.8 147.8 609.7 144.4 612.5 132.3 600.0 131.8 594.0 129.4 588.6 130.9 587.5 129.3 589.1 125.2 582.9 124.5 581.3 122.7 586.0 117.4 584.1 116.3 578.7 118.3 570.1 118.1 573.2 111.9 568.7 109.6 565.5 110.5 558.1 121.9 545.0 129.1 533.9 145.1 533.7 151.2 528.2 158.9 520.2 162.3 521.5 164.7 527.3 164.4 527.1 171.2 529.3 172.6 527.7 180.3 529.9 186.7 527.3 186.6 524.8 192.6 530.5 200.2 535.6 201.7 535.1 204.1 531.8 206.0 532.9 209.7 529.6 211.3 527.4 209.4 525.4 210.0 522.2 211.6 519.0 216.0 519.6 220.8 517.8 221.9 522.8 224.2 524.4 223.6 528.2 228.3 530.2 227.1 531.0 230.0 533.3 229.8 534.7 231.6 531.7 233.3 529.2 232.3 524.3 238.2 524.4 249.0 551.9 249.5 553.8 243.8 551.4 240.1 553.1 232.7 550.3 230.6 550.3 228.5 554.5 229.0 558.0 227.0 553.0 218.5 571.5 223.9 571.1 221.7 574.9 217.8 574.9 214.0 581.9 212.1 583.7 210.4 583.7 208.0 599.8 207.9 597.3 211.2 600.9 211.7 602.3 215.1 612.7 218.1 619.3 216.9 625.5 223.1 629.0 222.8 634.8 225.7 637.6 224.6 643.8 218.6 647.2 207.1 650.3 205.5 651.9 201.0 653.6 200.3 653.5 195.3 656.0 194.3 653.7 191.0 659.8 186.9 659.5 179.8 663.0 177.8 664.7 170.2 662.1 168.6 666.0 166.5 665.6 161.6 667.3 158.3 665.9 157.0"/><polygon class="cls-3" points="535.6 201.7 530.5 200.2 524.8 192.6 527.3 186.6 529.9 186.7 527.7 180.3 529.3 172.6 527.1 171.2 527.3 164.4 521.5 164.7 520.2 162.3 526.6 160.6 531.6 153.6 527.3 154.3 526.6 153.1 524.6 155.9 523.4 153.7 516.0 151.4 516.6 147.3 513.2 146.7 513.7 140.3 510.3 139.3 509.8 133.6 503.9 129.7 498.2 117.3 499.8 109.9 492.5 104.1 492.1 96.6 489.4 97.3 489.4 94.2 486.8 94.3 486.9 92.6 482.0 93.0 478.2 89.9 476.3 90.7 475.0 87.0 471.0 84.6 460.6 83.8 459.0 76.9 460.2 73.6 455.6 64.5 446.8 66.1 445.3 68.4 437.3 68.8 431.1 65.8 430.0 70.2 428.4 69.5 427.2 72.1 432.9 77.5 432.9 81.1 431.0 82.4 419.8 79.5 413.3 80.2 411.6 82.0 406.3 80.5 404.6 77.8 401.1 80.0 399.4 78.5 396.3 80.7 393.4 85.8 388.1 84.9 382.9 86.6 382.6 90.3 375.0 88.1 373.5 91.1 370.5 91.3 371.8 93.5 370.8 96.0 366.1 95.3 363.1 98.3 361.3 96.9 361.8 134.5 365.4 136.8 365.8 142.5 372.2 147.2 372.6 151.1 379.0 155.8 382.3 152.7 383.7 159.9 397.2 167.6 402.6 167.4 406.0 172.2 412.9 174.5 412.2 178.1 414.1 179.1 418.1 177.4 420.7 178.3 428.2 174.8 425.7 178.5 421.4 180.6 419.4 184.3 420.9 185.1 376.6 280.7 371.2 286.8 372.3 291.6 377.7 297.0 378.6 301.3 385.1 309.8 386.8 317.0 391.2 322.6 390.2 327.6 392.5 335.8 402.0 339.9 405.7 344.0 405.3 346.1 410.9 347.5 412.4 351.3 414.5 350.4 499.1 357.0 501.3 353.0 504.1 352.5 503.2 347.0 500.3 344.4 501.9 343.1 501.4 335.1 504.0 335.1 505.0 331.6 503.4 328.2 504.8 328.0 502.1 324.8 504.1 321.5 500.7 315.7 502.4 312.8 498.3 307.1 500.2 305.4 499.5 303.2 494.8 298.8 496.3 296.6 494.7 291.3 496.4 288.7 491.2 286.0 491.8 283.2 493.4 284.0 494.8 280.9 496.8 281.9 498.0 280.8 497.0 277.0 493.0 272.1 496.5 268.6 502.9 266.1 504.8 262.8 507.7 263.2 509.7 261.6 511.6 251.7 516.1 249.6 523.7 254.3 525.3 246.1 523.5 243.3 524.3 238.3 529.2 232.3 531.7 233.3 534.7 231.6 533.3 229.8 531.0 230.0 530.2 227.1 528.2 228.3 524.4 223.6 522.8 224.2 517.8 221.9 519.6 220.8 519.0 216.0 522.2 211.6 525.4 210.0 527.4 209.4 529.6 211.3 532.9 209.7 531.8 206.0 535.1 204.1"/><polygon class="cls-3" points="637.7 226.2 637.5 224.5 634.8 225.7 629.0 222.8 625.5 223.1 619.3 216.9 612.7 218.1 602.3 215.1 600.9 211.7 597.3 211.2 599.8 207.9 583.7 208.0 583.7 210.4 581.9 212.1 574.9 214.0 574.9 217.8 571.1 221.7 571.5 223.9 553.0 218.5 558.0 227.0 554.5 229.0 550.3 228.5 550.3 230.6 553.1 232.7 551.4 240.1 553.8 243.8 551.9 249.5 525.0 249.5 523.6 254.3 516.1 249.6 511.3 252.0 509.7 261.6 507.7 263.2 504.8 262.8 502.9 266.1 493.5 271.3 498.0 280.8 496.8 281.9 495.0 280.8 493.5 284.0 492.1 283.1 491.1 284.2 491.3 286.1 496.7 289.5 494.7 291.3 496.3 296.6 494.8 298.8 499.5 303.2 500.2 305.4 498.3 307.1 502.4 312.8 500.7 315.7 504.1 321.5 502.1 324.8 504.8 328.0 503.4 328.2 505.0 331.6 504.0 335.1 501.4 335.1 501.9 343.1 500.3 344.4 503.2 347.0 504.1 352.4 501.3 353.0 499.1 357.0 568.9 361.6 573.1 348.6 580.2 339.4 583.9 337.8 592.9 322.3 594.5 313.1 590.2 310.0 588.8 306.8 593.6 299.4 593.0 292.0 597.6 288.6 605.9 285.8 607.3 280.7 610.0 278.2 612.8 278.9 611.5 274.2 614.8 272.5 613.9 269.9 616.4 268.5 614.8 264.2 617.9 262.8 618.6 260.3 614.8 258.4 612.7 255.3 607.7 256.0 603.9 254.3 626.9 236.0 631.2 235.3"/><polygon class="cls-3" points="576.8 101.8 575.8 85.6 570.1 82.9 563.5 82.9 557.8 75.3 549.1 51.3 547.6 43.7 548.2 33.1 545.9 32.5 545.3 27.6 542.2 23.3 534.9 18.4 534.5 29.3 531.6 31.2 521.7 47.4 518.3 50.4 513.1 66.0 504.6 74.0 495.7 74.0 496.8 72.1 494.2 70.0 489.4 72.3 484.4 71.0 484.0 69.4 479.8 72.6 473.9 74.2 468.0 73.4 462.6 70.6 460.6 67.2 457.4 68.2 460.2 73.6 459.0 76.9 460.6 83.8 471.0 84.6 475.0 87.0 476.3 90.7 478.2 89.9 482.0 93.0 486.9 92.6 486.8 94.3 489.4 94.2 489.4 97.3 492.1 96.6 492.5 104.1 499.8 109.9 498.1 117.3 503.9 129.7 509.8 133.6 510.9 140.3 513.7 140.3 513.2 146.7 516.6 147.3 516.0 151.4 523.4 153.7 524.6 155.9 526.5 153.2 530.8 154.0 533.4 151.7 533.9 145.1 545.0 129.1 558.1 121.9 563.8 111.8 574.4 105.4"/><polygon class="cls-2" points="676.9 369.8 674.7 371.9 672.3 371.9 671.9 374.4 669.1 372.2 669.1 369.8 661.0 369.6 657.6 360.8 654.3 359.1 657.0 354.9 656.4 353.2 653.9 351.0 651.5 351.3 647.8 343.2 644.2 343.1 646.0 338.7 647.9 338.1 647.9 331.9 650.5 327.2 656.8 325.3 658.7 319.3 655.3 315.1 644.8 318.9 633.9 304.3 631.7 304.3 634.3 302.5 633.9 300.8 630.4 301.0 627.9 298.4 633.2 293.3 636.9 276.2 633.9 258.5 625.7 254.9 623.7 251.7 620.1 252.5 613.2 249.9 609.3 250.6 607.5 253.9 605.7 253.2 604.0 254.7 609.7 256.2 612.7 255.3 618.8 260.7 617.7 263.0 614.9 263.9 616.4 268.4 613.9 269.9 614.8 272.5 611.5 274.2 612.8 278.9 609.8 278.3 606.5 281.9 605.8 285.9 597.6 288.6 593.0 292.0 593.6 299.4 588.8 306.8 590.2 310.0 594.5 313.1 591.4 326.4 583.9 337.8 580.2 339.4 573.1 348.6 571.5 355.8 564.7 368.7 564.1 374.1 559.7 381.3 559.5 391.1 556.4 400.3 556.5 402.6 558.4 403.6 556.8 407.2 558.8 410.6 557.7 418.2 559.3 423.6 557.2 428.0 559.2 433.0 562.0 433.9 565.3 426.4 569.4 423.3 570.0 423.5 570.0 423.1 570.3 423.1 570.3 423.0 570.6 422.8 570.7 422.8 566.9 429.7 567.1 433.4 576.0 436.4 589.2 443.8 589.6 439.4 592.3 434.5 595.2 432.3 596.2 435.0 598.6 436.3 601.4 432.6 607.6 438.7 607.9 445.0 609.5 440.7 611.4 444.3 618.5 441.0 618.0 444.6 620.5 442.9 622.8 444.8 626.2 444.8 629.6 448.5 631.0 446.1 630.7 439.7 634.4 441.7 635.7 444.2 646.4 440.4 651.8 436.6 658.9 436.6 659.8 433.1 661.1 437.1 665.1 436.3 666.9 435.5 661.9 436.3 663.3 433.3 662.4 427.2 665.1 425.4 663.3 425.7 663.0 423.3 661.7 424.2 662.9 422.4 660.8 421.8 660.6 414.6 658.3 414.5 665.5 411.2 660.9 410.7 661.9 407.9 660.8 407.4 662.4 405.9 660.6 404.4 667.9 404.4 659.3 401.9 656.0 397.6 661.6 388.0 663.4 387.9 666.2 380.7 674.1 376.5"/><polygon class="cls-3" points="746.4 250.3 742.8 240.7 745.2 233.9 744.4 231.9 739.6 232.7 729.6 226.5 727.3 227.5 726.9 222.7 724.1 220.4 719.1 222.0 717.8 218.2 713.9 218.1 713.0 220.3 709.2 218.4 707.7 220.5 705.6 218.4 695.3 220.0 694.8 219.0 693.6 225.1 691.0 229.0 691.5 232.1 687.5 237.5 683.7 238.5 682.8 242.1 680.1 244.6 676.7 240.5 673.4 239.8 671.7 236.7 668.8 240.9 669.4 242.4 647.5 242.3 647.3 236.0 649.7 231.5 645.9 232.2 643.8 229.4 648.0 223.4 645.2 212.5 643.8 218.6 638.2 223.1 637.0 227.8 631.2 235.3 626.9 236.0 603.9 254.3 607.5 254.0 609.2 250.7 613.2 249.9 617.7 252.2 623.7 251.7 625.7 254.9 634.1 258.8 636.9 276.2 633.2 293.3 627.9 298.4 630.4 301.0 633.9 300.8 634.3 302.5 631.7 304.3 633.9 304.3 644.8 318.9 655.3 315.1 658.4 318.0 657.4 324.6 650.5 327.2 647.9 331.9 647.9 338.1 646.0 338.7 644.2 343.1 647.8 343.2 651.5 351.3 653.9 351.0 656.4 353.2 657.0 354.9 654.3 359.1 657.6 360.8 661.0 369.6 669.1 369.7 669.6 371.7 671.1 371.7 672.7 368.2 673.6 355.1 675.0 353.1 672.3 349.8 669.9 339.9 675.4 332.2 682.8 309.8 685.7 307.6 695.5 305.0 698.1 302.4 701.1 303.2 704.2 299.2 710.3 296.6 716.8 288.0 724.5 286.6 731.5 290.0 741.3 288.0 743.5 285.9 745.6 277.8 739.8 271.2 739.2 260.9 745.8 254.2"/><polygon class="cls-3" points="770.4 197.0 768.7 195.0 770.1 191.6 759.4 190.3 759.2 192.3 757.4 192.1 734.6 182.3 730.6 182.5 730.5 185.8 728.9 184.2 727.7 186.3 727.7 185.1 726.7 186.3 723.2 186.0 726.1 183.8 726.6 180.1 715.4 192.2 711.3 192.3 716.8 187.5 716.9 183.9 710.4 185.8 708.6 187.7 707.2 197.2 704.9 199.1 702.0 198.5 702.7 190.9 707.1 185.1 705.7 184.3 708.4 183.9 709.1 182.2 706.5 177.6 702.6 181.1 701.3 180.6 706.0 175.2 703.9 174.7 706.1 173.8 703.3 167.9 699.5 169.1 700.9 167.6 698.5 167.1 702.3 164.7 700.7 163.4 696.0 164.7 697.1 160.1 694.5 161.6 694.8 163.6 691.4 161.1 685.7 164.4 686.3 162.1 684.4 161.5 686.6 160.7 686.3 158.2 685.1 157.8 682.2 161.7 683.8 157.3 681.5 159.3 680.6 156.8 678.5 156.9 679.0 154.1 678.6 153.2 677.2 156.8 676.5 152.8 675.4 155.0 674.5 154.1 673.1 155.3 671.9 154.2 673.4 152.7 673.1 151.4 670.9 155.1 670.1 151.4 668.9 154.4 668.5 153.4 666.2 155.6 667.3 158.3 665.6 161.6 666.0 166.5 662.1 168.4 664.7 170.2 663.0 177.8 659.5 179.8 659.8 186.9 653.9 190.8 656.0 194.3 653.5 195.3 653.6 200.3 644.9 211.5 648.0 223.4 643.8 229.4 645.9 232.2 649.7 231.5 647.3 236.0 647.5 242.3 669.4 242.4 668.8 240.9 671.7 236.7 673.4 239.8 676.7 240.5 680.1 244.6 682.8 242.1 683.7 238.5 687.5 237.5 691.5 232.1 691.0 229.0 693.6 225.1 694.8 219.0 695.3 220.0 705.6 218.4 707.7 220.5 709.2 218.4 713.0 220.3 713.9 218.1 717.8 218.2 719.1 222.0 724.1 220.4 726.9 222.7 727.3 227.5 729.6 226.5 739.6 232.7 742.8 231.2 741.9 227.2 748.0 220.0 749.3 214.2 753.5 208.8 760.7 208.4 763.1 205.6 762.5 204.5 767.0 202.5"/><polygon class="cls-4" points="791.7 270.9 790.9 262.0 791.2 250.1 786.3 247.1 783.4 242.8 785.3 238.0 783.6 235.6 787.2 226.1 786.0 225.0 786.7 223.0 783.3 222.8 784.2 220.6 782.2 217.8 783.7 215.2 781.2 214.3 780.5 211.8 782.2 209.8 781.7 207.3 779.3 206.9 783.5 198.7 781.7 196.2 775.2 195.8 770.2 192.1 768.7 195.0 770.4 197.1 767.0 202.5 762.5 204.4 763.1 205.6 760.7 208.4 753.5 208.8 749.3 214.2 748.0 220.0 741.9 227.3 742.5 231.0 745.1 233.6 742.8 240.5 746.4 250.4 745.8 254.2 739.2 260.7 739.2 267.5 740.4 272.3 744.8 275.5 745.6 277.8 743.6 285.3 745.4 286.7 746.6 282.3 757.0 282.2 758.6 277.6 763.3 280.8 765.1 277.3 764.0 271.1 766.2 270.9 766.3 268.3 764.5 267.4 764.2 265.0 763.2 264.5 763.1 264.3 763.0 263.9 763.0 263.8 763.0 263.7 768.4 265.5 772.2 264.7 773.2 270.6 780.7 274.1"/><polygon class="cls-4" points="804.4 289.0 795.8 285.6 792.4 271.1 780.7 274.1 777.2 273.4 773.2 270.6 772.2 264.7 768.4 265.5 763.0 263.7 766.3 268.3 766.2 270.9 764.0 271.1 765.1 277.3 763.3 280.8 758.6 277.6 757.0 282.2 746.6 282.3 745.4 286.7 743.6 285.3 741.2 288.0 730.6 290.1 724.5 286.6 714.9 289.1 710.3 296.6 704.2 299.2 701.2 303.2 698.1 302.4 695.5 305.0 685.7 307.6 682.5 310.3 675.4 332.2 669.9 339.9 672.3 349.8 675.0 353.1 673.6 355.1 672.7 368.1 669.3 372.4 671.9 374.4 672.3 371.9 674.7 371.9 676.3 369.3 679.5 368.2 684.2 376.2 683.0 378.9 685.2 383.0 695.4 387.8 701.7 383.7 703.7 380.6 705.7 381.1 709.6 378.7 714.1 380.9 717.1 375.3 719.7 375.7 723.2 367.4 725.7 365.8 724.6 363.5 725.9 361.7 722.8 359.8 721.2 354.8 730.0 348.0 734.9 351.8 738.7 350.5 742.2 351.4 742.9 354.0 746.4 356.5 748.3 354.3 753.7 353.4 759.8 348.4 769.4 347.4 772.0 342.0 776.4 340.7 780.3 334.6 784.3 333.1 789.4 327.3 791.2 328.4 794.6 323.7 799.2 321.0 800.5 314.3 797.2 312.0 798.5 309.3 796.2 305.3 800.2 303.2"/><polygon class="cls-4" points="865.5 231.5 858.4 225.6 850.1 215.0 845.6 214.4 831.1 203.3 825.1 202.9 827.7 211.2 822.6 213.4 820.5 212.8 822.0 217.7 820.0 218.9 821.4 223.9 818.4 226.6 820.3 230.3 819.0 234.8 825.2 233.2 828.6 239.7 830.6 237.5 834.2 237.0 835.7 235.4 835.2 233.3 836.6 233.0 846.1 238.7 850.4 237.5 852.5 234.0 856.8 236.9 861.2 236.3 861.9 232.2"/><polygon class="cls-4" points="879.0 241.8 877.2 238.7 871.0 237.0 866.7 231.6 864.9 231.1 861.8 232.3 861.2 236.3 856.8 236.9 852.5 234.0 850.4 237.5 846.1 238.7 844.4 236.6 835.2 233.3 835.7 235.4 834.2 237.0 830.6 237.5 828.6 239.7 825.2 233.2 819.0 234.8 820.3 230.3 818.4 226.6 821.4 223.9 820.0 218.9 822.0 217.7 820.5 212.8 822.6 213.4 827.7 211.2 824.8 204.6 825.1 202.9 827.5 203.0 827.5 202.5 827.6 202.6 827.7 202.5 828.1 202.5 828.2 202.5 828.2 202.4 815.6 195.0 808.9 193.6 801.4 192.9 799.0 194.4 781.7 196.2 783.3 200.2 779.3 206.9 781.7 207.3 782.2 209.8 780.5 211.8 781.2 214.3 783.7 215.2 782.2 217.8 784.2 220.6 783.3 222.8 786.7 223.0 786.0 225.0 787.2 226.1 783.6 235.6 785.3 238.0 783.4 242.8 786.3 247.1 791.2 250.1 791.6 270.9 794.6 277.3 795.8 285.6 804.5 289.1 801.1 299.5 800.8 301.4 802.6 302.4 806.6 300.9 810.3 302.9 820.4 301.8 824.0 305.3 826.2 305.0 826.0 307.5 834.0 311.1 835.0 314.3 838.2 314.0 838.7 311.9 845.5 307.3 848.4 300.9 844.7 298.3 845.2 294.9 842.9 293.6 842.9 291.6 846.5 288.7 845.1 286.5 848.8 279.6 846.8 279.2 847.3 276.5 851.0 271.4 853.9 271.9 857.3 268.5 860.1 263.4 859.2 261.9 863.5 257.9 869.8 244.2"/><polygon class="cls-4" points="933.7 281.4 926.8 257.4 921.3 249.7 909.6 246.9 905.2 248.2 892.6 248.0 886.1 244.0 881.5 244.7 879.1 241.9 869.8 244.2 863.5 257.9 859.2 261.9 860.1 263.4 857.3 268.5 853.9 271.9 850.5 271.9 847.3 277.5 850.2 277.7 849.6 279.4 854.3 281.9 858.4 282.3 867.0 276.8 867.4 274.4 881.0 271.0 881.2 273.9 876.3 277.6 875.6 282.1 873.6 282.9 873.5 286.8 878.3 286.4 879.8 289.6 885.1 286.8 886.1 288.7 889.1 287.3 891.6 289.8 890.7 292.2 891.8 293.3 896.9 289.3 895.7 286.8 896.5 284.2 898.6 284.8 896.3 280.7 899.6 276.9 901.8 276.6 903.1 280.3 907.2 279.5 909.6 281.5 917.2 280.5 928.9 283.2"/><polygon class="cls-4" points="937.9 297.6 933.6 281.4 928.9 283.2 917.2 280.5 909.6 281.5 907.2 279.5 903.1 280.3 901.8 276.6 899.6 276.9 896.3 280.7 898.6 284.8 896.5 284.2 895.7 286.8 896.9 289.3 891.9 293.3 890.7 292.2 891.6 289.8 889.1 287.3 886.1 288.7 885.1 286.8 879.8 289.6 878.3 286.4 873.5 286.8 873.6 282.9 875.6 282.1 876.3 277.6 881.4 273.5 881.0 271.0 879.1 270.5 874.1 273.3 867.4 274.4 867.0 276.8 858.4 282.3 849.6 279.4 850.2 277.7 847.6 278.4 846.8 279.2 848.5 279.2 848.8 279.6 845.1 286.5 846.4 288.8 842.9 291.6 842.9 293.6 845.5 296.0 844.7 298.3 848.4 300.7 844.0 308.4 847.1 311.8 852.6 310.0 854.4 313.6 857.3 312.4 859.3 313.6 864.6 309.4 867.2 309.6 868.2 306.9 877.2 300.7 879.5 300.3 884.5 303.0 885.5 305.3 880.4 308.8 881.4 312.7 876.6 317.1 880.5 316.7 881.2 321.6 885.3 324.9 894.0 320.3 894.4 316.4 898.4 315.7 898.9 313.3 902.8 313.7 903.9 312.0 909.1 313.2 920.2 309.4 921.1 305.3 926.6 302.8 931.3 303.3 933.9 306.6 937.1 306.9"/><polygon class="cls-4" points="908.0 339.3 906.0 337.8 907.2 334.9 904.7 333.6 906.8 331.9 905.0 330.8 897.4 334.5 894.5 332.2 896.9 328.5 897.2 323.2 895.6 324.5 894.4 321.7 893.9 322.8 891.7 321.3 885.3 324.9 881.2 321.6 880.5 316.7 876.6 317.1 881.5 312.4 881.2 307.5 885.5 305.3 884.5 303.0 879.3 300.3 873.2 302.5 872.4 305.1 868.2 306.9 867.2 309.6 864.6 309.4 859.3 313.6 857.3 312.4 854.4 313.6 852.6 310.0 847.1 311.8 844.1 308.6 838.7 311.9 838.2 314.0 835.1 314.3 834.0 311.1 826.0 307.5 826.2 305.0 824.0 305.3 820.4 301.8 811.3 302.9 807.1 301.0 803.9 302.6 800.8 301.4 796.2 305.3 798.4 309.2 797.3 312.1 800.5 314.3 799.2 321.0 794.6 323.7 791.2 328.4 789.4 327.3 784.3 333.1 780.8 334.6 786.7 334.5 788.9 337.9 791.4 337.7 793.7 343.6 797.4 345.4 794.8 352.5 798.3 353.2 805.2 350.2 807.2 343.1 810.2 344.2 814.3 342.8 816.4 340.0 815.9 337.5 820.7 336.8 820.7 333.5 828.0 330.4 830.5 331.2 831.8 334.7 842.1 336.7 845.6 341.2 847.5 337.6 849.7 338.0 849.6 341.6 854.1 342.2 853.5 344.7 855.5 349.5 859.0 345.7 861.7 345.1 867.0 337.9 868.4 341.4 875.3 341.8 879.5 347.4 882.9 347.5 886.4 350.8 888.2 348.0 894.6 349.8 898.6 346.7 900.6 346.9"/><polygon class="cls-4" points="937.6 308.6 931.3 303.3 927.0 302.7 921.1 305.3 920.2 309.4 909.1 313.2 903.9 312.0 902.8 313.7 898.9 313.3 898.4 315.7 894.4 316.4 894.0 320.3 892.4 321.1 893.9 322.8 894.4 321.7 895.6 324.5 897.4 323.7 896.9 328.5 894.5 332.2 897.4 334.5 905.0 330.8 906.8 331.9 904.7 333.6 907.2 334.9 906.0 337.8 908.7 339.5 913.9 338.0 915.1 339.6 921.7 337.1 929.3 339.5 936.9 317.6"/><polygon class="cls-4" points="929.3 339.5 921.7 337.1 915.1 339.6 913.9 338.0 911.5 338.1 906.1 340.5 906.4 342.0 902.6 344.1 902.8 345.7 898.6 346.7 895.5 349.6 888.2 348.0 886.4 350.8 882.9 347.5 879.5 347.4 875.3 341.8 868.4 341.4 867.0 337.9 861.7 345.1 859.0 345.7 855.5 349.5 856.3 351.6 866.3 356.9 885.9 365.2 887.2 368.9 891.8 371.9 894.1 371.6 895.6 375.5 898.0 375.3 899.7 377.5 902.4 372.2 924.5 347.7"/><polygon class="cls-5" points="899.5 377.3 898.0 375.3 895.6 375.5 894.1 371.6 891.8 371.9 887.2 368.9 885.9 365.2 866.3 356.9 863.8 354.5 861.1 353.9 859.7 355.7 861.3 363.6 863.4 363.4 866.4 366.6 867.3 373.6 864.6 375.8 865.7 382.0 862.0 383.7 856.4 382.5 855.3 385.2 859.8 393.6 861.8 394.1 861.7 398.9 865.7 401.8 872.7 402.6 877.3 399.9 888.3 383.7"/><polygon class="cls-5" points="863.7 423.0 859.4 424.3 857.1 419.7 852.2 418.6 848.5 420.0 848.6 423.4 844.0 428.1 844.8 430.8 841.2 430.8 841.2 433.7 844.5 432.5 842.1 440.6 845.8 437.7 853.2 436.0"/><polygon class="cls-5" points="876.8 400.2 872.7 402.6 865.7 401.8 861.7 398.9 861.8 394.1 859.8 393.6 858.7 389.8 855.7 387.4 856.2 382.6 860.2 382.3 862.0 383.7 865.8 382.0 864.6 375.8 867.3 373.6 866.4 366.6 863.4 363.4 862.3 364.2 861.1 363.3 859.7 355.7 861.2 353.6 856.3 351.6 853.5 344.9 854.1 342.2 849.6 341.6 850.0 338.4 848.2 337.4 845.5 341.2 842.1 336.7 831.8 334.7 830.7 331.5 828.7 330.8 825.5 337.7 827.5 344.8 828.9 345.4 826.6 353.8 828.7 356.3 832.2 357.0 832.4 364.9 830.9 370.1 824.7 370.0 823.9 368.1 819.6 367.1 820.2 373.1 818.8 378.7 822.3 387.4 820.1 388.6 812.9 386.6 813.8 393.1 809.9 393.8 810.7 395.3 812.7 394.8 811.3 401.5 814.1 401.2 815.6 406.5 812.4 409.4 814.4 412.5 812.2 418.0 809.9 419.4 806.1 418.7 799.7 415.3 792.4 416.4 791.9 413.1 784.1 411.4 783.5 408.9 780.1 407.9 778.5 412.7 780.9 417.4 765.0 409.0 766.8 413.7 766.3 419.7 764.1 418.7 764.5 420.3 759.0 421.5 763.6 423.1 765.1 425.5 765.1 433.9 770.3 432.7 772.7 437.2 774.9 430.4 778.9 430.4 783.3 439.6 782.7 441.1 786.0 444.5 791.4 442.8 794.6 446.1 798.3 441.7 799.4 442.5 803.8 438.9 813.1 436.7 815.7 434.3 814.2 439.6 819.1 443.2 821.1 450.1 827.4 445.1 830.2 446.4 828.8 453.3 831.0 453.9 835.4 450.8 839.3 453.5 839.9 448.2 838.2 444.0 842.1 440.6 844.4 434.5 844.5 432.5 841.0 433.5 841.2 430.8 844.8 430.8 844.0 428.1 848.6 423.4 848.5 420.0 852.2 418.6 857.2 419.7 859.4 424.3 862.7 422.3 863.7 423.1"/><polygon class="cls-5" points="818.9 494.0 817.0 492.6 815.8 487.6 811.9 488.1 810.1 486.2 812.0 484.6 812.8 480.8 808.4 479.0 809.4 472.7 801.3 469.3 804.1 467.6 790.7 460.2 792.3 457.5 797.7 457.4 795.9 455.3 796.7 449.5 794.3 445.3 791.4 442.8 785.9 444.4 782.7 441.1 783.3 439.6 778.9 430.4 774.9 430.4 772.7 437.2 770.3 432.7 765.1 433.9 765.1 425.5 763.6 423.1 759.0 421.5 762.9 420.7 763.4 417.8 757.3 406.8 754.2 406.8 753.8 408.0 751.3 406.4 747.6 406.9 743.5 403.3 742.7 404.4 740.2 402.1 735.2 401.0 732.5 404.5 732.5 408.3 730.5 408.8 729.3 411.7 726.4 411.6 719.7 392.0 717.0 388.3 721.1 385.8 723.4 387.3 732.3 386.1 732.5 371.4 727.6 371.5 725.7 374.5 717.2 375.2 714.1 380.9 709.6 378.7 705.7 381.1 703.7 380.6 701.7 383.7 695.4 387.8 685.2 383.0 683.0 378.9 684.2 376.2 679.4 368.1 676.4 369.2 677.0 371.7 674.6 373.3 674.0 376.5 666.2 380.8 663.4 387.9 661.6 388.0 656.0 398.1 659.3 401.9 667.9 404.4 660.6 404.4 662.4 405.9 660.8 407.4 661.9 407.9 660.9 410.7 665.5 411.2 658.3 414.5 660.6 414.6 660.8 421.8 662.9 422.4 661.7 424.2 663.0 423.3 663.3 425.7 663.8 425.4 665.1 425.4 662.4 427.2 663.3 433.3 661.9 436.3 667.3 435.5 661.8 439.6 662.2 444.6 668.2 444.4 663.8 447.6 663.9 451.1 665.9 451.7 663.5 453.8 663.5 460.0 665.4 465.0 672.0 469.7 669.3 472.5 670.4 474.1 668.9 482.2 670.6 484.6 666.9 489.8 668.0 491.5 670.9 488.5 676.5 487.8 680.2 483.8 682.8 484.0 688.8 479.0 691.7 479.2 704.1 469.4 712.5 466.8 722.8 469.3 720.4 476.9 728.9 480.7 731.2 478.5 737.3 476.8 743.0 478.2 754.9 486.6 759.2 488.1 761.4 487.2 763.3 489.6 770.2 487.6 780.9 497.1 781.5 503.0 786.0 503.6 790.3 500.7 792.3 501.8 793.7 500.6 795.0 502.2 796.6 501.1 799.9 504.4 802.3 503.2 806.9 504.7 810.1 499.4 808.6 495.7 809.5 493.8 815.0 495.6 817.1 498.0"/><polygon class="cls-5" points="840.8 505.3 838.8 501.1 835.7 478.7 839.0 459.8 837.2 451.1 835.4 450.8 831.0 453.9 828.8 453.3 830.2 446.4 827.4 445.1 821.1 450.1 819.1 443.2 814.2 439.6 815.7 434.3 813.1 436.7 803.8 438.9 801.1 441.5 796.1 443.0 794.6 446.2 796.7 449.5 795.9 455.3 797.7 457.4 792.3 457.5 790.7 460.2 804.1 467.6 801.3 469.3 809.4 472.7 808.4 479.0 812.8 480.8 812.0 484.6 810.1 486.2 811.9 488.1 815.8 487.6 817.0 492.6 818.9 493.9 817.1 498.0 810.8 493.8 808.6 495.7 810.1 499.4 808.0 504.9 813.2 509.1 815.4 509.1 816.8 511.8 815.3 515.9 811.7 520.1 811.0 519.2 809.6 522.9 806.6 523.1 805.1 527.9 807.2 528.4 806.6 530.6 801.6 530.2 799.7 534.5 800.2 539.8 798.4 542.7 808.1 550.6 809.2 553.4 807.0 555.1 808.0 556.5 821.3 565.3 825.8 556.6 830.8 553.7 834.0 549.5 832.6 546.9 832.2 536.9 834.7 530.5 833.9 527.3 836.7 515.9"/><polygon class="cls-5" points="830.9 370.1 832.2 357.0 828.7 356.3 826.6 353.8 828.9 345.4 827.5 344.8 825.5 337.7 828.5 330.6 820.7 333.5 820.7 336.8 815.9 337.5 816.4 340.0 814.3 342.8 810.2 344.2 807.2 343.1 805.2 350.2 798.4 353.2 794.8 352.5 797.4 345.4 793.7 343.6 791.4 337.7 788.9 337.9 786.7 334.5 780.5 334.6 776.4 340.7 772.0 342.0 769.4 347.4 757.9 349.2 753.7 353.4 748.3 354.3 747.1 356.4 742.9 354.0 742.2 351.4 738.7 350.5 734.9 351.8 730.8 347.9 723.0 352.3 721.4 356.9 722.8 359.8 725.9 361.7 724.6 363.5 725.7 365.8 723.2 367.4 719.7 374.9 725.7 374.5 727.6 371.5 732.5 371.4 732.3 386.1 723.4 387.3 721.1 385.8 717.0 388.4 719.7 392.0 726.5 411.7 729.3 411.7 730.5 408.8 732.5 408.3 732.5 404.5 735.2 401.0 740.2 402.1 742.7 404.4 743.5 403.3 747.6 406.9 751.3 406.4 753.8 408.0 754.2 406.8 757.3 406.8 763.3 417.7 763.4 420.4 764.5 420.3 764.1 418.7 766.3 419.7 766.8 413.7 765.0 409.0 780.9 417.4 778.5 412.7 780.1 407.9 783.5 408.9 784.1 411.4 791.9 413.1 792.4 416.4 799.7 415.3 809.9 419.4 812.5 417.6 812.7 414.7 814.0 414.7 814.4 412.4 812.2 410.3 815.6 406.5 814.1 401.2 811.3 401.5 812.7 394.8 810.7 395.3 809.9 393.8 813.8 393.1 812.9 386.6 820.1 388.6 822.3 387.4 818.8 378.7 820.2 373.1 819.6 367.1 823.9 368.1 824.7 370.0"/><polygon class="cls-6" points="710.5 619.2 708.1 614.9 704.7 616.4 702.0 613.5 704.6 608.8 707.0 608.3 704.7 604.0 707.3 598.6 703.7 594.2 704.9 588.5 701.0 586.0 701.4 582.3 698.6 580.9 698.9 577.7 689.1 576.1 688.4 569.6 685.1 567.9 686.6 566.6 686.8 561.9 678.6 567.0 679.0 570.6 676.9 575.1 678.6 576.5 671.0 595.5 668.3 596.6 666.1 590.7 663.0 591.4 662.0 592.6 663.3 595.9 659.6 597.6 656.0 597.2 658.0 600.6 654.8 603.4 654.7 605.7 650.6 605.4 650.1 608.5 647.5 608.4 659.7 614.7 663.2 620.6 666.7 621.9 669.2 621.4 670.6 618.8 676.3 622.4 687.5 620.3 690.4 620.9 692.3 624.3 696.2 623.7 699.0 626.4 703.0 624.2 705.4 624.7"/><polygon class="cls-6" points="780.4 496.7 770.2 487.5 763.4 489.6 761.4 487.2 757.0 487.5 743.0 478.2 735.7 476.9 728.9 480.7 721.0 477.4 720.7 473.7 722.8 469.3 717.7 467.6 710.1 467.0 704.1 469.4 691.7 479.2 688.8 479.0 682.8 484.0 680.2 483.8 676.3 488.0 670.9 488.5 668.4 491.4 666.9 489.8 670.4 486.1 669.7 482.8 662.9 483.4 662.1 480.7 657.8 478.0 656.3 480.1 657.8 486.4 654.8 487.3 649.6 485.4 647.6 486.6 648.5 487.9 647.3 490.7 649.8 493.0 647.1 498.5 649.3 499.9 650.5 506.2 643.8 508.1 642.5 507.3 638.7 509.5 637.5 512.2 638.2 514.6 634.9 521.1 639.9 525.0 642.7 533.3 637.5 537.0 635.3 541.3 633.6 540.8 632.9 543.8 635.0 546.0 638.1 545.5 639.5 547.6 637.0 552.8 639.0 558.0 641.9 555.1 646.6 554.5 648.8 547.9 652.2 547.8 655.0 544.9 657.0 544.7 662.3 550.5 663.6 558.0 667.6 559.0 669.7 562.0 667.3 569.7 673.7 571.2 674.5 568.5 678.4 568.5 680.4 565.2 687.3 562.2 685.1 567.9 688.4 569.6 689.1 576.1 698.9 577.7 698.6 580.9 701.0 581.5 701.0 586.0 702.7 586.3 706.7 584.9 712.4 579.7 716.3 578.1 717.8 578.9 719.2 577.1 717.8 572.3 723.9 571.8 730.5 575.1 733.0 572.8 737.1 574.3 736.7 570.2 732.8 569.6 732.4 567.7 735.1 566.2 739.1 568.1 738.0 565.4 735.3 564.3 735.8 561.5 736.9 562.1 739.8 558.6 742.0 560.6 748.7 559.1 751.0 556.9 748.8 553.8 751.5 550.2 748.8 546.2 752.6 547.9 751.1 545.1 751.9 541.6 748.8 540.7 749.0 536.1 745.7 537.3 747.9 528.9 755.9 524.4 754.3 520.8 761.2 520.5 763.4 518.3 767.9 517.9 768.0 514.1 772.9 512.9 772.4 510.4 774.7 507.8 768.8 508.1 767.5 506.9 768.4 503.1 772.0 502.8 772.3 504.5 773.5 504.2 773.3 501.1 775.2 500.5 771.5 499.2 772.6 497.3"/><polygon class="cls-6" points="679.0 570.6 678.3 568.5 675.2 568.1 673.7 571.2 667.3 569.7 669.7 562.0 667.6 559.0 663.6 558.0 660.7 547.6 657.0 544.7 655.0 544.9 652.2 547.8 648.8 547.9 646.5 554.5 641.8 555.1 625.1 568.3 623.0 568.9 615.5 564.8 614.5 566.2 608.5 564.7 602.4 566.0 599.6 564.2 596.2 566.9 593.0 566.8 588.8 572.4 585.2 568.7 579.3 572.3 573.6 571.3 572.2 573.0 566.8 573.6 561.9 579.4 561.3 583.2 558.0 584.1 554.5 587.8 553.1 590.8 554.2 592.6 551.1 592.4 552.0 594.7 550.5 595.0 549.1 598.3 549.8 605.9 562.8 599.5 565.8 601.6 573.7 603.0 584.8 602.5 587.4 604.3 591.9 603.9 590.6 607.3 592.2 611.5 593.9 612.2 596.4 608.5 598.0 608.6 598.7 614.1 600.5 615.3 602.1 608.7 615.9 608.2 616.3 605.5 619.4 608.3 622.5 605.6 624.5 607.8 626.6 604.4 630.7 606.0 634.7 603.8 636.1 606.7 643.6 611.5 643.3 609.6 650.1 608.5 650.6 605.4 654.7 605.7 654.8 603.4 658.0 600.6 656.0 597.2 659.6 597.6 663.3 595.9 662.0 592.6 663.0 591.4 666.1 590.7 668.3 596.6 671.0 595.5 678.6 576.5 676.9 575.1"/><polygon class="cls-6" points="761.2 614.5 760.5 606.9 756.1 607.8 752.4 611.1 752.3 609.0 750.7 608.7 749.9 608.0 751.0 608.1 750.3 603.0 754.1 599.4 753.0 592.8 758.8 591.6 756.2 589.3 757.9 586.5 753.2 584.6 752.2 587.9 749.3 590.0 747.7 589.3 746.4 584.9 747.6 584.4 743.9 583.5 742.8 584.5 739.7 582.3 734.6 573.4 733.0 572.8 730.5 575.1 723.9 571.8 717.6 572.4 719.2 577.1 717.8 578.9 716.3 578.1 712.4 579.7 706.7 584.9 701.8 586.7 704.9 588.5 703.7 594.2 707.3 598.6 704.7 602.3 707.0 608.3 704.6 608.8 702.0 613.5 704.7 616.4 708.1 614.9 709.9 616.8 710.5 619.2 708.0 620.7 708.2 622.8 714.1 622.6 717.6 623.9 719.3 626.9 722.1 625.6 722.1 627.1 725.4 627.0 725.4 628.1 733.9 625.8 736.4 621.9 748.6 624.8 749.7 622.9 754.0 623.0"/><polygon class="cls-6" points="816.7 511.7 815.4 509.1 809.3 506.9 807.8 504.4 804.3 504.9 802.3 503.2 799.9 504.4 796.6 501.1 795.0 502.2 793.7 500.6 792.3 501.8 790.3 500.7 786.0 503.6 781.5 503.0 780.7 496.9 772.6 497.3 771.5 499.2 775.2 500.5 773.3 501.1 774.3 502.8 772.3 504.5 772.0 502.8 768.6 502.9 767.5 506.8 769.6 508.6 774.6 507.6 772.4 510.4 772.9 512.9 768.4 513.6 766.6 518.7 763.6 518.2 761.4 520.5 754.3 520.8 755.9 524.4 747.9 528.9 745.7 537.3 749.0 536.1 748.8 540.7 751.9 541.6 751.1 545.1 752.6 547.9 748.8 546.2 751.5 550.2 748.8 553.8 750.9 557.3 742.0 560.6 740.1 558.6 738.4 559.2 735.0 563.4 739.1 568.1 735.1 566.2 732.4 567.7 732.8 569.6 736.7 570.2 737.1 574.2 735.7 575.4 737.8 580.1 742.8 584.5 743.9 583.5 747.6 584.4 746.4 584.9 747.7 589.3 749.3 590.0 752.2 587.9 753.2 584.6 757.9 586.5 756.2 589.3 758.8 591.6 753.0 592.8 754.1 599.4 749.9 604.4 751.0 608.1 749.9 608.1 752.3 609.0 752.3 611.0 756.1 607.8 760.5 606.9 761.1 615.5 766.3 616.9 769.4 614.6 771.3 609.7 780.3 609.3 782.2 603.3 785.0 602.2 785.4 596.9 788.5 594.5 788.3 592.5 790.1 592.9 791.6 588.2 790.8 584.3 787.9 582.1 789.0 580.2 783.6 577.3 783.9 576.0 791.4 576.4 790.8 573.4 788.2 572.0 788.9 567.9 785.1 567.4 785.6 564.3 788.2 560.9 792.0 559.5 794.9 560.7 791.7 556.6 792.2 556.2 796.5 557.5 800.7 554.3 808.0 556.5 807.0 555.1 809.2 553.4 808.1 550.6 798.4 542.7 800.2 539.8 799.7 534.5 801.7 530.1 806.6 530.6 807.2 528.4 805.1 527.9 806.6 523.1 809.6 522.9 811.0 519.2 811.7 520.1 815.3 515.9"/><polygon class="cls-6" points="716.0 646.6 713.8 641.6 711.8 643.3 706.6 641.1 707.0 639.2 703.9 636.1 706.5 634.2 704.5 634.8 700.7 625.1 699.0 626.4 696.2 623.7 692.3 624.3 690.4 620.9 687.4 620.3 676.3 622.4 670.6 618.8 669.2 621.4 666.7 621.9 663.2 620.6 659.7 614.7 651.2 611.4 650.9 609.8 644.8 609.3 642.9 611.6 640.3 610.0 641.7 616.3 640.5 616.5 643.6 620.5 640.1 626.0 642.3 628.0 645.6 638.8 653.9 637.3 657.6 639.9 657.4 643.4 654.9 644.9 653.3 648.7 655.1 653.0 652.5 654.4 655.5 655.9 652.5 660.0 654.0 662.6 660.1 665.5 660.4 668.5 658.4 669.3 661.8 670.8 661.3 674.2 666.3 673.1 666.5 674.7 671.9 672.1 672.5 673.6 674.8 673.1 676.7 670.7 674.2 669.6 677.1 668.2 676.6 666.4 677.9 666.4 677.8 668.2 682.4 666.7 684.2 668.3 691.4 664.2 701.9 661.5 704.5 655.8 707.4 655.4 708.1 649.4 710.8 650.9"/><polygon class="cls-7" points="798.3 624.9 798.0 617.8 794.9 621.7 791.1 621.0 789.7 615.1 788.2 616.3 786.8 611.9 782.8 610.3 782.0 611.2 781.1 609.5 771.3 609.7 769.1 612.7 770.3 615.2 768.9 619.5 770.1 620.2 768.4 623.0 772.4 625.6 771.8 631.2 775.9 633.1 787.3 634.0 790.4 635.9 795.2 625.4"/><polygon class="cls-7" points="821.3 564.9 808.0 556.5 800.7 554.3 796.5 557.5 792.2 556.2 794.9 560.7 792.0 559.5 788.2 560.9 785.6 564.3 785.1 567.4 788.9 567.9 788.2 572.0 790.8 573.4 791.4 576.4 783.9 576.0 783.6 577.3 789.0 580.2 787.9 582.1 790.8 584.3 791.6 588.2 790.1 592.9 788.3 592.5 788.5 594.5 785.4 596.9 785.0 602.1 782.2 603.3 779.5 610.0 786.8 611.9 788.2 616.3 789.4 615.0 790.2 615.8 791.3 621.1 794.9 621.7 798.0 617.8 799.7 623.1 800.9 622.2 804.8 617.2 806.5 611.5 807.8 611.7 809.7 603.6 813.6 598.6 817.9 596.4 820.7 589.0 819.3 576.7"/><polygon class="cls-6" points="770.9 623.9 768.4 623.0 770.3 615.2 768.5 614.3 766.3 616.9 760.5 615.1 754.0 623.0 749.7 622.9 748.6 624.8 736.4 621.9 733.9 625.8 725.4 628.1 725.4 627.0 722.1 627.1 722.1 625.6 719.3 626.9 717.6 623.9 714.3 622.6 709.1 621.8 705.4 624.7 700.7 625.1 704.5 634.8 706.5 634.2 703.9 636.1 707.0 639.2 706.6 641.1 711.8 643.3 713.8 641.6 714.0 644.5 716.0 644.9 715.8 647.8 710.8 650.9 708.1 649.4 707.4 655.4 704.5 655.8 701.8 661.7 706.7 658.8 712.0 659.0 723.3 654.1 728.1 654.7 735.7 652.8 738.5 653.3 738.3 655.2 739.8 654.9 759.1 645.8 756.7 643.5 759.4 640.3 758.5 639.7 760.9 632.2"/><polygon class="cls-7" points="754.9 670.1 752.8 669.8 751.1 665.6 752.2 661.5 748.1 661.1 747.4 655.6 740.5 660.2 741.0 663.5 739.1 665.3 735.5 666.3 736.2 665.0 734.4 663.4 731.3 664.0 729.8 662.7 727.3 666.2 724.6 665.8 721.5 668.1 722.8 669.2 722.1 671.1 719.1 673.8 714.9 673.2 713.0 674.8 714.0 677.5 716.4 675.2 716.6 676.2 721.4 674.2 728.4 678.4 737.8 675.7 734.9 671.3 739.5 668.8 740.9 670.4 738.3 675.1 740.4 676.1 749.1 675.6 751.1 672.1 754.8 672.3"/><polygon class="cls-7" points="790.3 636.5 787.3 634.0 778.7 633.9 772.3 631.7 772.4 625.6 771.1 624.0 763.1 629.5 760.5 633.0 759.4 640.3 756.7 643.5 759.1 645.8 749.6 649.6 747.3 655.1 748.1 661.1 752.2 661.5 751.1 665.6 752.8 669.8 754.9 670.1 754.8 672.3 751.6 671.9 749.2 674.4 765.2 676.5 764.7 674.2 768.8 670.7 765.8 669.6 766.4 665.4 773.3 659.6 789.7 652.8 789.1 643.6 787.7 641.1"/><polygon class="cls-7" points="749.7 650.4 738.3 655.2 738.5 653.3 735.7 652.8 728.1 654.7 723.3 654.1 712.0 659.0 707.3 658.6 698.5 662.0 702.3 667.2 705.5 668.0 708.5 666.3 713.8 668.8 711.1 672.5 705.8 672.9 698.7 676.1 696.5 682.2 700.2 685.4 703.6 685.2 705.6 683.6 703.7 683.0 704.2 682.0 702.2 683.8 703.0 682.2 701.1 682.6 702.7 681.8 702.2 681.0 700.6 682.1 701.7 677.8 707.1 677.2 709.4 674.7 710.5 675.6 709.2 677.3 711.6 676.5 711.8 677.9 713.5 677.7 713.0 674.8 714.9 673.2 719.1 673.8 722.1 671.1 722.8 669.2 721.5 668.1 724.6 665.8 727.3 666.2 729.8 662.7 731.3 664.0 734.4 663.4 736.2 665.0 735.5 666.3 739.1 665.3 741.0 663.5 740.5 660.2 747.7 655.7"/><polygon class="cls-8" points="674.7 693.5 673.4 692.0 664.1 694.1 654.3 700.5 651.3 700.7 650.5 699.0 646.4 702.0 641.3 700.4 634.5 702.4 632.5 701.4 630.8 703.2 631.2 701.5 629.8 701.5 628.3 703.5 624.5 702.3 615.4 707.6 613.3 707.2 612.4 710.7 613.5 711.5 609.3 716.9 607.6 724.9 609.3 726.8 612.1 723.9 614.0 726.1 616.0 723.9 618.2 727.9 617.4 729.1 619.2 730.4 621.3 729.7 619.6 731.9 624.0 728.2 624.1 725.7 626.6 723.0 645.7 710.4 647.5 707.0 660.3 701.3 660.7 699.8 663.0 701.5 665.4 700.3 667.0 696.6"/><polygon class="cls-8" points="713.8 668.8 708.5 666.3 705.5 668.0 702.3 667.2 698.4 662.3 684.2 668.3 682.4 666.7 677.8 668.2 677.9 666.4 676.6 666.4 677.1 668.2 674.1 669.9 676.3 669.9 676.7 672.1 672.5 673.6 671.9 672.1 668.6 674.1 667.9 681.5 666.2 683.1 670.7 688.5 675.6 688.8 677.1 691.6 673.6 694.7 683.4 696.5 683.9 691.5 688.7 690.5 689.7 688.3 691.8 689.0 693.3 687.6 692.3 686.6 695.9 684.5 697.5 685.8 700.3 685.4 696.4 682.0 698.7 676.1 705.8 672.9 711.1 672.5"/><polygon class="cls-8" points="677.1 691.6 674.9 688.3 670.7 688.5 666.2 683.1 667.9 681.5 668.6 674.1 661.3 674.2 661.8 670.8 658.6 669.4 654.9 669.9 651.4 673.0 649.3 672.6 650.3 674.0 648.5 674.4 648.0 677.0 645.8 676.7 642.4 679.0 643.2 682.0 638.7 679.2 635.4 681.2 638.5 690.8 643.9 692.1 646.3 695.8 643.1 696.7 641.1 700.5 645.7 702.0 650.5 699.0 651.3 700.7 654.5 700.4 664.1 694.1"/><polygon class="cls-8" points="644.8 635.1 643.1 633.1 642.4 628.0 640.2 625.9 643.6 620.4 642.3 617.2 638.9 615.5 639.6 608.6 635.4 606.0 634.6 603.8 630.7 605.9 628.9 604.2 625.4 604.5 624.5 607.7 622.5 605.6 620.1 608.3 616.2 605.5 616.6 608.0 611.2 607.8 618.5 611.0 616.9 615.7 612.8 617.6 617.0 625.8 613.2 627.5 611.0 630.5 604.5 632.6 603.9 638.8 600.4 637.5 592.3 643.6 595.5 646.6 598.9 646.9 598.3 648.6 600.9 650.7 604.2 649.9 609.0 653.4 610.5 652.9 614.4 657.3 619.5 656.9 620.9 654.3 626.4 656.5 628.7 653.1 627.0 649.0 629.8 643.1 631.6 641.8 636.3 643.4 639.1 641.8 641.8 636.2"/><polygon class="cls-8" points="646.2 695.7 643.9 692.1 638.5 690.8 638.1 687.1 635.9 685.1 635.6 679.0 634.4 679.5 633.2 676.5 630.0 676.5 629.1 674.6 625.2 673.2 623.2 674.4 624.2 680.2 622.4 681.8 620.6 682.1 621.6 680.6 618.3 678.6 616.2 683.2 610.2 682.8 606.5 684.4 607.4 690.7 603.3 691.9 601.8 690.8 590.8 694.2 587.8 689.8 583.8 687.5 583.0 688.8 584.9 693.4 583.6 697.3 593.2 708.7 590.4 714.0 590.7 716.6 592.9 717.3 597.9 715.6 599.0 716.9 608.0 716.5 609.1 717.8 612.6 714.1 611.6 713.4 613.5 711.5 612.4 710.7 613.3 707.2 615.4 707.6 624.5 702.3 627.4 703.7 629.8 701.5 631.2 701.5 630.8 703.2 632.5 701.4 634.5 702.4 640.6 700.8 643.1 696.7"/><polygon class="cls-8" points="618.4 611.0 612.6 608.0 602.2 608.6 600.5 615.3 598.7 614.1 598.0 608.6 596.4 608.5 593.9 612.2 592.2 611.5 590.6 607.3 591.9 603.9 587.4 604.3 584.8 602.5 573.7 603.0 565.8 601.6 562.8 599.5 551.0 605.6 547.6 611.5 551.1 618.1 555.7 617.8 554.9 620.4 556.3 622.0 571.4 625.7 573.3 628.2 574.8 626.5 577.7 627.1 574.3 634.1 584.0 637.7 592.8 644.8 592.3 643.6 596.0 639.8 597.6 640.2 600.4 637.6 603.9 638.8 604.5 632.6 611.0 630.6 613.2 627.5 616.8 626.1 612.8 617.6 616.9 615.7"/><polygon class="cls-8" points="578.5 636.2 574.3 634.1 578.2 627.7 577.2 626.7 574.8 626.5 573.3 628.2 571.4 625.7 556.3 622.0 554.9 620.4 555.7 617.8 551.1 618.1 547.9 611.6 542.9 612.7 536.0 620.2 535.3 627.4 529.2 632.0 529.5 637.0 527.0 640.7 524.0 641.7 524.9 644.9 517.2 655.2 499.7 667.3 500.2 668.4 504.1 666.2 509.5 667.6 512.3 666.2 514.2 667.8 520.3 667.3 520.9 668.8 523.6 665.0 533.0 668.6 543.8 668.6 546.6 670.7 552.8 671.7 555.1 675.4 558.3 674.0 570.9 675.1 571.9 667.9 570.8 666.4 572.4 664.4 571.1 659.5 570.0 658.5 568.4 661.7 566.2 661.2 566.9 657.5 553.4 651.9 557.2 649.2 559.4 644.4 565.5 646.1 571.4 645.2 572.6 642.7 576.2 641.9"/><polygon class="cls-8" points="624.8 657.5 620.9 654.4 619.4 656.9 614.4 657.4 610.4 653.0 608.9 653.4 603.9 649.8 600.9 650.7 598.3 648.6 598.8 646.9 595.5 646.7 594.1 644.2 591.7 644.6 589.9 641.8 578.1 635.3 576.2 641.9 572.6 642.7 571.4 645.2 565.5 646.1 559.4 644.4 557.2 649.2 553.4 651.9 566.9 657.5 566.2 661.2 568.4 661.7 570.4 658.7 572.4 664.4 570.8 666.4 571.9 667.9 570.9 675.1 574.4 674.1 576.2 677.8 580.7 679.2 584.5 686.7 583.8 687.9 587.8 689.8 590.8 694.2 601.8 690.8 603.3 691.9 607.4 690.7 606.5 684.4 610.2 682.8 616.2 683.2 618.1 678.6 620.5 678.8 621.6 680.6 620.6 682.1 624.1 680.4 623.7 673.8 621.7 674.0 621.5 670.1 619.9 669.9 619.7 667.5 615.9 667.4 615.7 665.6 617.8 664.0 620.2 665.2 624.0 662.8 623.0 660.7"/><polygon class="cls-8" points="660.4 668.4 660.1 665.5 654.0 662.6 652.5 660.0 655.5 655.9 652.5 654.4 655.1 653.0 653.3 648.7 654.9 644.9 657.4 643.4 657.4 639.4 655.1 639.3 653.8 637.3 645.6 638.8 644.6 635.0 641.8 636.2 639.1 641.8 636.3 643.4 631.6 641.8 629.8 643.1 627.0 649.0 628.7 653.1 626.4 656.5 624.3 656.5 622.9 661.3 624.0 662.7 620.2 665.2 617.8 664.0 615.7 665.6 615.9 667.4 619.7 667.5 619.9 669.9 621.5 670.1 621.7 674.1 626.6 673.6 630.0 676.5 633.2 676.5 635.9 680.6 638.7 679.2 643.2 682.0 642.4 679.0 645.8 676.7 648.0 677.0 648.5 674.4 650.3 674.0 649.3 672.6 651.5 673.0 654.9 669.9"/><polygon class="cls-1" points="512.1 723.3 510.8 724.0 510.5 721.9 500.7 716.0 501.3 715.1 498.0 712.9 497.5 708.6 495.7 708.6 496.5 710.5 494.7 710.8 494.1 713.4 491.7 713.4 492.3 716.5 489.7 718.4 482.0 711.3 481.0 713.1 478.0 710.5 472.1 709.4 467.3 725.8 468.2 728.4 463.6 735.2 464.2 738.6 468.1 741.1 469.1 738.7 474.2 738.4 473.5 737.4 475.9 736.2 476.1 739.2 476.5 737.7 485.4 738.5 486.0 736.5 488.1 737.9 488.9 736.5 493.9 737.2 493.8 733.8 496.6 731.8 500.6 733.2 510.6 729.3 509.7 728.3"/><polygon class="cls-1" points="621.4 729.9 617.4 729.1 618.2 727.9 616.0 723.9 614.0 726.1 612.1 723.9 608.6 726.5 607.6 724.6 610.0 718.1 608.0 716.5 599.0 716.9 597.3 715.6 596.6 716.9 591.4 717.0 591.3 710.5 586.0 715.1 585.1 714.2 582.7 715.8 585.4 717.6 584.5 719.5 586.1 722.1 581.0 724.9 581.0 729.6 577.5 730.0 580.3 733.2 578.8 737.6 571.8 739.6 568.6 743.8 570.1 745.4 573.8 745.8 574.7 749.7 577.2 749.1 580.6 752.4 586.0 753.7 593.9 748.3 607.7 747.8 611.6 739.8"/><polygon class="cls-1" points="537.9 762.0 536.4 755.3 531.6 754.5 533.5 750.8 532.9 748.5 526.5 748.7 522.4 745.0 523.6 743.3 522.4 742.3 507.9 739.0 509.7 731.0 504.5 730.7 500.6 733.2 496.6 731.8 493.8 733.8 493.9 737.2 488.9 736.5 488.1 737.9 486.0 736.5 485.4 738.5 483.9 737.6 482.9 738.8 482.9 737.3 478.6 738.4 482.2 740.9 482.3 747.6 487.3 754.6 490.4 755.6 495.6 754.2 500.1 757.7 508.6 756.5 511.8 758.3 521.8 759.0 529.3 762.7"/><polygon class="cls-1" points="537.7 681.4 531.2 676.7 533.1 674.8 531.0 672.5 532.6 667.6 529.4 667.7 523.6 665.0 520.9 668.8 520.3 667.3 514.2 667.8 512.3 666.2 509.3 667.6 503.0 666.3 487.8 675.4 484.6 684.6 478.7 687.7 476.1 699.1 470.3 703.4 470.6 706.2 472.3 709.7 478.0 710.5 481.0 713.1 482.0 711.3 489.6 718.4 492.3 716.5 491.7 713.4 494.1 713.4 494.7 710.8 496.5 710.5 495.7 708.6 497.5 708.6 498.0 712.9 501.3 715.1 500.7 716.0 510.6 722.7 513.4 720.8 513.3 718.4 525.2 714.0 525.2 710.2 527.5 706.0 526.0 705.0 528.9 703.3 527.2 702.1 527.7 697.6 526.1 696.1 528.2 694.1 527.1 693.2 534.8 690.3 535.7 688.0 533.7 685.5"/><polygon class="cls-1" points="586.1 722.1 584.5 719.5 585.4 717.6 582.5 716.3 584.3 715.2 582.8 712.3 575.3 709.3 574.4 706.3 569.5 707.1 569.5 704.8 571.8 703.2 570.8 701.4 567.6 699.4 566.2 703.4 558.3 702.2 552.6 695.6 551.2 698.1 547.5 699.1 548.1 702.2 541.2 703.7 547.9 707.4 547.9 710.1 545.6 713.0 548.2 715.7 550.5 723.6 548.0 722.8 545.4 718.8 540.4 718.6 538.2 715.5 539.4 713.8 533.1 714.9 528.7 709.9 528.1 706.7 527.0 706.4 525.2 714.0 513.3 718.4 513.4 720.8 510.6 722.3 510.8 724.0 511.4 722.6 512.3 723.4 509.7 728.3 510.6 729.2 506.1 730.6 510.4 731.4 507.5 736.3 509.1 740.3 511.6 738.9 513.4 741.1 513.3 739.8 518.7 740.6 518.4 741.7 523.5 743.1 522.3 745.0 526.1 748.6 532.9 748.5 533.5 750.8 531.6 754.5 536.4 755.3 537.9 762.2 540.3 765.5 544.7 763.0 543.7 757.6 545.6 759.1 547.4 757.7 550.5 758.0 550.0 760.2 554.4 761.4 555.3 760.2 552.6 755.2 557.0 754.2 559.0 749.9 560.9 749.7 560.5 748.4 566.1 751.5 568.1 749.0 569.8 750.2 570.0 748.9 574.0 749.4 575.0 748.1 573.8 745.8 570.1 745.4 568.6 743.7 571.8 739.6 578.8 737.6 580.3 733.2 577.5 730.0 581.0 729.6 581.0 724.9"/><polygon class="cls-1" points="610.5 777.2 607.4 775.0 608.3 772.5 606.6 770.0 608.0 767.1 606.0 766.7 605.5 764.6 610.2 753.5 607.9 752.0 606.5 747.3 593.9 748.3 584.7 754.0 575.5 748.5 574.8 749.7 574.6 748.6 570.0 748.9 569.8 750.2 568.1 749.0 566.3 751.6 560.5 748.4 560.9 749.7 559.0 749.9 557.0 754.2 552.6 755.2 555.0 760.5 558.8 760.6 568.0 768.9 565.8 774.5 567.1 777.4 573.8 779.9 573.7 781.8 576.3 782.6 580.6 788.0 586.7 785.8 588.9 785.6 590.3 786.3 590.8 786.2 591.4 780.2 602.2 775.6 605.4 775.6 607.5 777.5"/><polygon class="cls-1" points="591.3 793.1 586.8 790.2 585.9 786.6 580.6 788.0 576.3 782.6 573.7 781.8 573.8 779.9 567.1 777.4 565.8 774.5 568.0 768.9 558.1 760.3 551.7 761.5 550.0 760.1 550.5 758.0 547.4 757.7 545.6 759.1 543.6 757.6 544.7 763.0 540.3 765.5 538.0 762.2 529.3 762.7 521.8 759.0 511.8 758.3 508.6 756.5 500.1 757.7 495.6 754.2 490.4 755.6 486.9 754.2 485.3 757.6 484.2 765.6 486.3 770.9 483.5 772.9 484.1 773.8 483.1 773.2 482.4 776.3 490.5 777.1 490.2 775.5 493.5 774.4 495.3 775.5 494.8 777.5 500.5 776.1 501.6 774.2 502.7 777.5 503.4 776.1 505.9 776.3 509.6 779.0 515.8 777.4 517.3 779.5 519.2 779.8 520.1 778.4 521.0 780.2 522.2 778.7 526.3 781.3 527.5 780.2 529.8 784.8 535.1 783.9 536.5 786.2 538.5 785.7 539.8 787.9 541.0 787.2 544.4 790.9 548.2 792.2 549.7 795.1 553.1 797.1 553.2 799.5 555.3 799.5 556.1 802.0 561.1 806.4 568.2 806.4 570.4 808.1 571.0 806.4 571.7 807.8 579.7 807.2 581.5 811.1 584.9 807.8 585.4 800.6 588.6 798.8"/><polygon class="cls-1" points="613.4 782.8 612.0 781.3 609.4 782.0 609.1 779.4 607.7 779.8 607.5 777.4 605.3 775.5 591.4 780.2 590.8 786.2 586.7 785.8 585.8 787.2 586.8 790.2 591.3 793.1 590.6 795.5 588.6 798.8 585.4 800.6 584.8 808.0 581.6 811.1 579.0 810.9 577.1 814.0 575.7 813.5 574.9 818.2 576.0 819.6 574.0 821.8 575.5 821.5 575.0 822.9 573.7 824.6 571.7 823.9 572.9 825.2 571.8 825.8 571.2 824.8 570.8 824.7 570.3 825.0 570.6 827.1 573.1 828.6 571.4 826.3 575.0 824.8 581.0 827.9 590.5 817.7 602.5 810.7 606.5 801.8 607.6 792.8 610.4 791.0"/><polygon class="cls-9" points="523.9 894.0 522.5 894.6 524.6 892.6 523.6 892.4 521.1 893.9 520.5 893.8 524.0 892.0 523.2 890.9 522.7 890.8 520.3 893.1 521.0 890.9 523.6 890.7 520.3 888.9 520.9 885.9 525.5 884.5 526.6 877.4 531.3 874.0 531.3 870.9 528.6 868.8 525.6 872.3 522.5 868.9 524.1 868.0 519.7 866.9 520.3 865.2 511.0 867.1 508.8 865.4 502.1 866.4 503.5 861.7 497.2 854.8 496.4 857.8 497.9 861.1 496.6 862.7 492.4 863.3 492.3 867.1 489.4 866.8 486.6 864.1 478.7 867.7 466.9 865.3 461.4 862.1 462.3 859.8 461.2 858.3 458.2 861.6 454.2 861.3 453.7 864.7 451.0 867.4 452.6 873.0 455.9 877.0 464.4 878.9 467.5 883.5 476.0 890.2 479.1 889.9 484.5 893.7 486.9 901.0 492.8 905.8 500.3 907.6 503.1 903.6 508.6 901.4 506.6 900.0 508.8 896.9 507.8 896.7 511.4 895.4 509.6 899.5 512.2 904.6 508.0 913.1 505.1 913.5 502.4 910.1 500.7 911.8 499.4 910.9 496.1 918.4 494.7 917.1 492.6 919.6 492.3 918.6 491.1 922.0 491.9 928.1 489.5 930.5 489.7 932.3 492.4 933.7 510.7 919.2 518.6 901.2 523.9 895.7"/><polygon class="cls-9" points="581.5 811.0 579.7 807.2 571.7 807.8 571.0 806.4 570.4 808.1 568.2 806.4 565.8 807.3 559.1 805.5 548.2 792.2 544.4 790.9 541.0 787.2 539.8 787.9 538.5 785.7 536.5 786.2 535.1 783.9 529.8 784.8 527.6 780.2 526.3 781.3 522.2 778.7 521.0 780.2 520.1 778.4 519.2 779.8 517.3 779.5 515.8 777.4 509.6 779.0 507.1 777.1 506.3 780.3 503.5 779.6 503.4 781.1 500.5 781.2 499.2 782.9 501.2 782.8 501.1 785.2 503.6 786.3 499.6 787.8 502.7 791.2 500.7 791.6 501.1 794.8 498.6 794.8 496.5 796.4 497.7 797.7 495.1 798.1 502.6 805.0 500.3 808.1 497.2 807.3 496.1 809.7 492.3 810.3 496.5 812.3 496.7 814.2 499.4 814.2 499.6 816.1 498.0 816.8 498.7 819.4 503.5 819.0 506.9 820.9 510.3 825.7 515.3 825.8 516.1 823.6 519.3 824.0 521.2 822.4 518.4 815.6 520.3 812.0 522.5 811.8 524.2 812.3 526.2 817.8 528.3 818.4 528.2 820.6 530.7 820.4 532.6 823.0 531.1 827.3 533.4 827.4 533.6 830.2 543.9 827.1 545.9 831.9 549.9 831.5 550.4 829.4 552.3 832.1 557.6 829.7 556.7 830.9 559.0 833.5 563.7 832.9 566.7 830.5 567.1 832.2 570.1 832.9 568.1 828.1 573.1 828.6 569.9 826.0 575.0 822.9 575.5 821.5 574.0 821.8 576.0 819.6 575.0 814.6 579.0 810.9"/><polygon class="cls-9" points="507.5 777.9 505.9 776.3 502.5 777.5 501.6 774.2 500.5 776.1 494.8 777.5 495.3 775.5 493.5 774.4 490.2 775.5 490.5 777.1 487.0 777.5 486.4 776.1 484.5 776.8 481.4 775.3 476.4 779.4 474.2 778.3 471.6 783.0 468.6 781.9 465.8 784.4 464.5 783.1 462.1 786.0 459.0 784.9 456.0 790.7 452.6 790.9 453.8 792.7 449.6 792.8 443.9 798.4 442.6 798.0 441.1 800.1 439.9 799.0 435.9 802.1 438.4 804.2 437.9 806.3 433.5 804.8 433.3 807.6 430.3 808.3 430.3 810.7 423.6 815.2 420.6 821.7 416.5 823.0 410.9 831.8 404.3 838.0 399.9 839.6 398.6 843.8 395.5 846.7 391.1 848.5 394.1 850.8 401.4 850.9 405.0 846.1 410.8 846.3 430.0 862.8 430.3 869.9 438.5 866.8 438.7 864.7 440.6 863.9 446.1 868.9 448.7 874.2 452.7 875.9 453.7 874.9 451.1 867.0 453.7 864.7 454.2 861.3 458.2 861.6 461.2 858.3 462.3 859.8 461.4 862.1 466.9 865.3 478.7 867.7 486.6 864.1 489.4 866.8 492.3 867.1 492.4 863.3 496.6 862.7 498.0 861.0 496.4 857.8 498.0 851.5 495.6 852.3 493.9 850.0 495.5 846.8 500.2 843.1 499.4 841.5 501.6 833.3 495.5 830.6 503.3 821.5 505.8 821.1 502.9 818.8 498.7 819.4 498.0 816.8 499.6 816.1 499.4 814.2 496.7 814.2 496.5 812.3 492.3 810.3 496.1 809.7 497.2 807.3 500.3 808.1 502.6 805.0 495.1 798.1 497.7 797.7 496.5 796.4 498.6 794.8 501.1 794.8 500.7 791.6 502.7 791.2 499.6 787.8 503.0 787.5 503.6 786.3 501.1 785.2 501.2 782.8 499.2 782.9 500.5 781.2 503.4 781.1 503.5 779.6 506.3 780.3"/><polygon class="cls-9" points="581.0 827.9 574.9 824.9 571.4 826.3 572.7 828.8 568.1 828.0 570.1 832.9 567.1 832.2 566.7 830.5 563.7 832.9 559.0 833.5 556.7 830.9 557.6 829.7 552.3 832.1 550.4 829.4 549.9 831.5 545.9 831.9 543.9 827.1 533.6 830.2 533.4 827.4 531.1 827.3 532.6 823.0 530.7 820.4 528.2 820.6 528.3 818.3 524.7 815.8 524.2 812.3 520.4 811.9 518.4 815.8 521.4 821.8 519.3 824.0 516.1 823.6 514.7 826.0 510.3 825.7 506.0 820.9 503.3 821.5 496.8 828.5 495.5 830.7 501.6 833.3 501.3 836.2 499.4 841.5 500.2 843.1 495.5 846.8 494.3 851.6 498.0 851.5 497.8 856.7 503.5 861.7 501.9 866.2 508.8 865.4 511.0 867.1 520.3 865.2 519.7 866.9 524.1 868.0 522.5 868.9 525.6 872.3 525.9 870.6 529.1 868.8 531.3 870.9 530.8 874.8 532.1 874.8 535.4 874.3 535.3 871.4 539.6 870.0 538.2 866.2 541.4 864.9 541.0 859.6 542.6 859.5 543.2 863.6 543.5 856.2 545.4 853.8 546.9 854.5 546.5 856.0 547.9 853.1 543.1 851.3 543.0 844.1 544.6 845.2 544.2 848.5 549.4 850.6 548.9 853.4 552.2 854.6 552.2 851.8 558.0 851.1 558.3 848.8 559.8 848.7 561.2 850.3 560.4 855.5 558.5 854.7 559.9 853.6 559.1 851.9 559.2 853.4 556.7 852.8 557.8 858.6 556.9 862.7 551.0 865.5 550.6 868.9 545.9 869.8 546.4 874.7 544.5 878.9 545.7 880.0 555.8 870.6 565.6 856.9 572.8 840.2"/><polygon class="cls-2" points="552.0 594.2 551.7 591.8 548.1 588.2 525.9 580.4 513.5 572.7 508.4 573.5 504.3 572.2 503.2 569.9 508.1 565.3 499.9 564.4 498.9 558.9 500.6 557.7 491.8 556.5 490.7 557.9 479.6 555.1 481.9 549.8 485.5 548.9 485.5 538.5 477.5 544.6 476.4 547.8 470.0 548.7 468.3 545.8 464.5 544.2 457.8 547.9 451.4 548.6 441.9 544.5 439.2 541.1 432.0 539.6 427.9 537.0 420.0 540.9 413.0 540.4 405.6 550.5 395.8 554.6 390.3 550.1 389.1 545.7 387.6 546.4 389.4 552.8 392.9 560.1 395.8 562.5 393.3 562.7 388.3 578.4 390.1 581.1 387.9 581.7 379.6 599.0 386.1 604.1 378.7 608.9 379.8 609.4 378.9 611.1 380.4 610.8 380.7 613.7 382.8 615.2 383.0 621.5 384.6 620.7 385.8 622.1 383.6 623.7 386.2 624.8 384.4 626.3 387.0 627.4 386.2 634.1 384.6 635.4 386.2 636.6 383.5 641.2 385.5 645.2 384.0 646.5 384.9 647.2 383.4 649.0 384.8 649.9 382.8 654.7 387.5 656.2 392.0 654.9 392.7 656.8 397.7 658.2 406.7 657.9 410.4 659.8 413.7 657.8 415.3 658.9 418.4 654.9 421.1 654.4 421.8 656.7 425.6 659.3 434.1 659.3 439.8 668.3 439.2 677.2 442.0 681.3 441.2 684.1 442.4 685.6 441.0 687.9 441.6 691.5 444.0 693.7 444.6 699.6 449.0 700.8 455.9 699.7 462.4 696.0 472.4 701.8 476.1 699.1 478.9 687.5 485.0 684.0 487.9 675.3 497.8 669.9 502.4 664.4 514.6 657.8 524.4 645.8 524.0 641.7 527.0 640.7 529.6 636.9 529.2 632.0 535.3 627.2 536.0 620.2 542.0 613.3 548.8 610.4 550.2 606.8 549.1 598.3"/><polygon class="cls-2" points="484.2 538.8 485.9 538.2 483.0 536.5 479.5 536.6 478.0 531.4 471.5 535.2 456.5 534.7 456.9 527.6 454.6 525.4 456.0 521.9 455.2 520.3 454.1 521.5 453.1 519.8 449.7 519.9 447.2 505.6 444.7 504.8 444.3 501.0 446.0 499.7 443.9 499.8 444.8 497.3 447.2 497.5 448.1 494.8 446.5 493.6 452.1 487.7 457.5 486.7 451.2 484.9 450.8 480.1 442.7 482.2 438.9 481.0 442.4 479.0 445.5 474.5 450.7 476.3 459.1 467.6 452.4 453.2 446.5 450.7 442.5 445.3 437.4 446.1 433.3 443.4 433.6 439.1 427.8 428.6 423.7 430.5 421.2 434.7 412.1 433.4 413.5 437.2 412.7 439.7 415.9 446.9 420.9 452.1 421.0 457.2 414.4 458.2 414.5 454.0 412.8 452.8 409.1 456.3 401.6 459.3 398.3 458.5 399.9 456.6 398.2 455.0 398.4 450.6 393.6 451.2 391.5 447.1 395.0 441.0 390.6 441.2 388.7 443.8 384.6 442.3 379.5 443.0 378.4 441.7 377.8 436.9 373.1 432.4 372.6 425.5 370.1 420.0 371.8 411.4 354.9 422.2 350.8 420.1 339.8 421.7 336.6 427.2 333.3 429.4 332.9 434.7 328.1 439.2 325.7 448.1 317.8 453.5 323.7 456.3 323.1 457.8 325.7 460.9 323.1 465.7 328.4 476.1 329.0 487.5 321.3 487.8 329.2 496.5 330.8 515.4 372.4 516.8 375.0 515.4 374.7 520.8 371.5 525.9 373.2 537.4 381.7 544.8 385.5 543.8 388.6 546.5 389.3 545.7 390.3 550.1 395.6 554.5 405.6 550.5 413.0 540.4 420.0 540.9 427.9 537.0 432.0 539.6 439.2 541.1 441.9 544.5 451.4 548.6 457.8 547.9 464.5 544.2 468.3 545.8 470.0 548.7 476.4 547.8 477.5 544.6"/><polygon class="cls-2" points="568.7 361.9 414.5 350.4 412.4 351.3 410.9 347.5 405.3 346.1 405.7 344.0 402.0 339.9 392.5 335.8 390.2 327.6 391.2 322.8 386.8 317.0 383.4 306.5 379.5 302.1 377.6 304.7 377.9 308.6 373.5 314.0 375.8 320.8 372.2 334.5 374.9 334.9 372.8 336.6 297.0 336.8 299.7 339.6 297.6 343.8 298.4 347.5 295.8 348.0 299.5 356.6 297.2 358.8 298.8 362.9 296.5 369.2 299.9 375.6 299.6 384.6 297.8 389.1 323.9 389.2 326.5 392.1 327.7 390.8 335.2 392.2 336.8 399.0 332.1 403.5 332.3 409.5 335.2 411.3 337.4 419.3 340.1 421.6 350.8 420.1 354.9 422.2 372.0 411.5 370.1 419.5 373.5 433.0 377.8 436.9 379.5 443.0 384.6 442.3 388.7 443.8 390.6 441.2 395.0 441.0 391.5 447.1 393.6 451.2 398.4 450.6 398.2 455.0 399.9 456.6 398.3 458.5 401.6 459.3 409.1 456.3 412.8 452.8 414.5 454.0 414.4 458.2 421.0 457.2 420.9 452.1 415.9 446.9 412.7 439.7 413.5 437.2 412.1 433.4 421.2 434.7 423.7 430.5 427.8 428.6 433.6 439.1 433.4 443.4 437.4 446.1 442.5 445.3 446.5 450.7 452.4 453.2 455.1 458.0 454.2 458.4 456.7 460.5 456.2 463.4 458.9 468.3 450.7 476.3 445.5 474.5 442.4 479.0 438.9 481.0 442.7 482.2 450.8 480.1 451.2 484.9 457.5 486.7 452.1 487.7 446.5 493.6 448.1 494.8 447.2 497.5 444.8 497.3 443.9 499.8 446.0 499.7 444.3 501.0 444.7 504.8 447.2 505.6 449.7 519.9 453.1 519.8 454.1 521.5 455.2 520.3 456.0 521.9 454.6 525.4 456.9 527.6 456.5 534.8 471.5 535.2 478.0 531.4 479.5 536.6 481.2 535.9 485.9 538.2 485.5 548.9 481.9 549.8 479.5 554.9 490.7 557.9 491.8 556.5 500.6 557.7 496.5 549.5 497.1 540.1 501.0 534.7 502.0 529.6 507.4 526.8 508.6 523.2 511.3 521.9 509.9 516.3 513.2 515.3 513.9 512.3 518.3 510.8 520.2 506.5 529.1 505.0 532.1 500.3 531.6 498.0 533.4 496.8 534.6 489.4 537.5 486.6 542.3 484.4 543.8 486.2 548.1 483.2 551.1 473.8 550.7 468.3 552.1 464.0 554.2 463.3 553.2 454.8 559.5 444.9 559.5 438.7 562.2 434.4 559.2 433.0 558.6 429.0 557.3 428.8 559.3 423.6 557.7 418.2 558.8 410.6 556.8 407.2 558.4 403.6 556.4 402.5 556.4 399.9 559.5 391.1 559.7 381.3"/><polygon class="cls-2" points="639.6 547.8 638.1 545.5 635.0 546.0 632.9 543.9 633.9 540.1 628.9 534.3 629.4 530.6 624.3 531.0 623.8 533.1 620.2 531.3 619.4 527.0 616.2 526.6 606.5 537.4 602.9 537.7 601.4 534.2 596.7 534.3 595.4 536.2 592.4 535.0 582.9 538.4 580.1 533.3 580.6 530.0 579.3 527.8 580.6 523.0 577.8 520.8 580.2 517.2 573.4 513.5 573.1 509.8 562.6 512.0 557.7 519.0 556.1 518.7 554.1 514.6 546.0 509.8 542.8 514.1 539.7 514.0 538.8 511.7 535.2 513.5 530.4 509.8 529.5 504.7 527.5 504.5 526.0 506.3 520.2 506.5 518.3 510.8 513.9 512.3 513.2 515.3 509.9 516.3 511.7 520.9 508.6 523.2 507.4 526.8 502.0 529.7 501.0 534.7 497.1 540.1 496.4 548.1 500.8 556.6 498.9 558.9 499.9 564.4 508.1 565.3 503.2 569.9 504.3 572.2 515.4 573.4 518.3 576.8 521.9 577.2 534.4 584.1 548.1 588.2 553.9 592.8 554.5 587.8 558.0 584.1 561.3 583.2 561.9 579.4 567.0 573.5 572.2 573.0 573.6 571.3 579.3 572.3 585.2 568.7 588.8 572.4 593.0 566.8 596.2 566.9 599.6 564.2 602.4 566.0 608.5 564.7 614.5 566.2 615.5 564.8 623.0 568.9 627.9 566.8 631.3 564.5 632.3 561.8 639.1 558.3 637.0 552.8"/><polygon class="cls-2" points="672.0 469.8 668.3 465.9 665.4 465.0 663.5 460.0 663.5 453.8 665.9 451.7 663.9 451.1 663.8 447.6 668.2 444.4 662.2 444.6 661.8 439.6 666.8 436.3 667.1 435.3 661.1 437.1 659.8 433.1 658.9 436.6 651.8 436.6 646.4 440.4 635.7 444.2 634.4 441.7 630.7 439.7 631.0 446.1 629.6 448.5 626.2 444.8 622.8 444.8 620.5 442.9 618.0 444.6 618.5 441.0 611.4 444.3 609.5 440.7 607.9 445.0 608.2 440.3 606.6 437.6 604.8 437.3 601.5 432.6 598.6 436.3 596.2 435.0 595.2 432.3 589.6 439.4 589.2 443.8 576.0 436.4 567.1 433.4 566.9 429.7 570.6 422.8 565.3 426.4 562.7 430.4 561.6 436.7 559.5 438.7 559.5 444.9 553.2 454.8 554.2 463.3 552.1 464.0 550.7 468.3 551.1 473.8 548.1 483.2 543.8 486.2 542.4 484.4 540.0 485.3 534.6 489.4 533.4 496.8 531.6 498.0 532.1 500.3 529.2 504.5 530.5 507.2 529.5 508.3 535.2 513.5 538.8 511.7 539.8 514.0 544.0 513.5 546.0 509.8 554.1 514.6 556.1 518.7 557.7 519.0 562.6 512.0 573.1 509.8 573.4 513.5 580.2 517.2 577.8 520.8 580.6 523.0 579.3 527.8 580.6 530.0 580.1 533.3 582.9 538.4 592.4 535.0 595.4 536.2 596.7 534.3 601.4 534.2 602.9 537.7 606.5 537.4 617.5 526.0 615.5 520.8 612.4 518.2 614.3 516.2 611.9 506.8 615.9 500.8 612.8 499.8 612.1 500.8 607.6 497.9 608.7 496.2 607.4 488.8 608.9 489.3 611.9 487.2 620.2 488.8 628.6 485.5 632.2 486.3 634.5 480.8 637.1 480.5 641.5 474.2 643.4 474.1 643.8 476.7 640.3 482.8 642.7 488.1 644.1 486.6 647.4 492.7 648.9 492.0 647.3 490.6 648.5 487.9 647.7 486.5 649.3 485.4 654.8 487.3 657.8 486.4 656.3 480.1 657.8 478.0 662.1 480.7 662.9 483.4 667.7 483.6 669.8 479.9 669.6 471.4"/><polygon class="cls-2" points="650.5 506.0 649.3 499.9 647.1 498.4 649.8 492.9 647.2 492.6 644.1 486.6 642.7 488.1 640.3 482.8 643.8 476.7 643.4 474.1 641.5 474.2 637.1 480.5 634.5 480.8 632.2 486.3 628.6 485.5 626.2 487.5 623.6 486.9 619.2 488.8 611.9 487.2 607.2 489.2 608.5 490.9 607.6 497.9 608.9 499.7 615.9 500.8 611.9 506.8 614.3 516.2 612.4 516.8 612.4 518.3 615.5 520.8 617.2 526.6 620.1 527.9 620.2 531.3 623.9 533.1 624.3 531.0 629.4 530.6 628.9 534.3 634.2 541.4 642.8 532.5 639.9 525.0 634.9 521.1 638.1 515.0 638.4 509.8 642.5 507.3 643.8 508.1"/></svg>